<?xml version="1.0" standalone="no"?>
<!DOCTYPE svg PUBLIC "-//W3C//DTD SVG 20010904//EN"
 "http://www.w3.org/TR/2001/REC-SVG-20010904/DTD/svg10.dtd">
<svg version="1.0" xmlns="http://www.w3.org/2000/svg"
 width="300.000000pt" height="81.000000pt" viewBox="0 0 300.000000 81.000000"
 preserveAspectRatio="xMidYMid meet">
<metadata>
Created by potrace 1.10, written by Peter Selinger 2001-2011
</metadata>
<g transform="translate(0.000000,81.000000) scale(0.100000,-0.100000)"
fill="#000000" stroke="none">
<path d="M275 671 c-187 -94 -271 -142 -273 -154 -3 -13 2 -17 14 -15 17 3 18
-4 15 -63 -2 -47 2 -76 13 -97 21 -40 21 -39 -14 -57 -18 -9 -30 -23 -30 -35
0 -25 0 -26 70 10 33 17 62 30 65 30 3 0 5 -64 5 -143 l0 -143 70 34 70 33 0
225 0 224 -70 -35 c-69 -35 -70 -36 -70 -75 0 -34 -4 -42 -30 -55 -16 -8 -31
-15 -35 -15 -3 0 -5 35 -5 78 l1 77 202 100 c111 54 204 100 207 102 3 2 5
-33 5 -77 l0 -79 -37 -17 c-33 -15 -38 -22 -38 -51 0 -23 -5 -33 -15 -33 -23
0 -23 56 0 75 17 13 26 65 11 65 -6 -1 -21 -6 -34 -13 -22 -13 -23 -15 -25
-235 -1 -143 2 -222 8 -222 6 1 21 7 34 14 23 13 23 15 22 159 l-2 146 71 36
70 35 0 155 c0 85 -1 154 -2 153 -2 0 -124 -62 -273 -137z m-35 -396 l0 -184
-30 -16 c-16 -8 -31 -15 -35 -15 -3 0 -5 47 -5 104 0 80 -4 108 -15 120 -20
19 -20 82 0 90 8 3 15 16 15 29 0 16 10 28 33 40 17 8 33 16 35 16 1 1 2 -82
2 -184z"/>
<path d="M2408 611 c-135 -44 -195 -194 -125 -313 60 -103 191 -135 293 -73
59 36 104 114 104 180 0 64 -45 144 -101 178 -49 30 -126 42 -171 28z m130
-88 c59 -37 79 -129 42 -190 -27 -45 -64 -66 -115 -66 -126 0 -183 160 -87
246 41 38 110 42 160 10z"/>
<path d="M2790 598 c-53 -27 -72 -59 -66 -111 6 -51 19 -65 102 -103 80 -37
97 -53 92 -85 -7 -46 -90 -49 -132 -5 l-21 24 -30 -24 -30 -25 32 -29 c82 -74
227 -54 252 34 11 42 -1 97 -25 117 -9 8 -49 30 -88 49 -59 29 -72 39 -74 62
-6 51 73 63 117 19 18 -18 19 -18 47 4 26 20 27 24 14 40 -19 23 -88 54 -120
55 -14 0 -46 -10 -70 -22z"/>
<path d="M690 574 l0 -36 60 4 60 3 0 -172 0 -173 38 0 37 0 0 172 0 172 58
-3 57 -2 0 35 0 36 -155 0 -155 0 0 -36z"/>
<path d="M1930 405 l0 -205 35 0 35 0 0 70 0 70 53 0 c97 0 160 53 160 134 0
52 -21 89 -66 116 -26 16 -50 20 -124 20 l-93 0 0 -205z m193 113 c47 -54 -4
-118 -94 -118 l-29 0 0 74 0 73 53 -4 c36 -3 57 -11 70 -25z"/>
<path d="M1000 348 l0 -148 38 0 37 0 0 91 c0 87 1 92 28 115 15 13 38 24 51
24 18 0 22 6 23 35 1 31 -2 35 -24 35 -14 0 -37 -13 -54 -29 l-29 -29 0 26 c0
24 -4 27 -35 27 l-35 0 0 -147z"/>
<path d="M1230 393 c0 -128 14 -167 66 -189 45 -19 89 -12 121 18 l23 21 0
-21 c0 -18 6 -22 35 -22 l35 0 0 148 0 147 -40 0 -40 0 0 -97 c0 -85 -3 -101
-20 -118 -23 -23 -58 -26 -86 -6 -17 13 -19 27 -19 116 l0 102 -38 3 -37 2 0
-104z"/>
<path d="M1644 486 c-51 -22 -79 -72 -79 -138 0 -69 21 -103 86 -136 50 -27
110 -25 160 5 34 20 34 21 10 52 -17 23 -19 23 -42 7 -32 -22 -81 -20 -113 5
-51 40 -36 49 79 49 l105 0 0 33 c0 102 -107 166 -206 123z m116 -66 c33 -33
24 -40 -50 -40 -40 0 -70 4 -70 10 0 21 41 50 70 50 17 0 39 -9 50 -20z"/>
</g>
</svg>
