<svg id="visual" viewBox="0 0 900 600" width="900" height="600" xmlns="http://www.w3.org/2000/svg" xmlns:xlink="http://www.w3.org/1999/xlink" version="1.1"><rect x="0" y="0" width="900" height="600" fill="#002233"></rect><path d="M0 426L21.5 439.5C43 453 86 480 128.8 493.7C171.7 507.3 214.3 507.7 257.2 509.3C300 511 343 514 385.8 512C428.7 510 471.3 503 514.2 487.2C557 471.3 600 446.7 642.8 439.8C685.7 433 728.3 444 771.2 456.3C814 468.7 857 482.3 878.5 489.2L900 496L900 601L878.5 601C857 601 814 601 771.2 601C728.3 601 685.7 601 642.8 601C600 601 557 601 514.2 601C471.3 601 428.7 601 385.8 601C343 601 300 601 257.2 601C214.3 601 171.7 601 128.8 601C86 601 43 601 21.5 601L0 601Z" fill="#5ab947" stroke-linecap="round" stroke-linejoin="miter"></path></svg>