<svg id="visual" viewBox="0 0 900 600" width="900" height="600" xmlns="http://www.w3.org/2000/svg" xmlns:xlink="http://www.w3.org/1999/xlink" version="1.1"><rect x="0" y="0" width="900" height="600" fill="#fff"></rect><path d="M0 416L18.8 431.2C37.7 446.3 75.3 476.7 112.8 492.5C150.3 508.3 187.7 509.7 225.2 489.7C262.7 469.7 300.3 428.3 337.8 405.7C375.3 383 412.7 379 450.2 398.2C487.7 417.3 525.3 459.7 562.8 477.3C600.3 495 637.7 488 675.2 476.8C712.7 465.7 750.3 450.3 787.8 434.3C825.3 418.3 862.7 401.7 881.3 393.3L900 385L900 601L881.3 601C862.7 601 825.3 601 787.8 601C750.3 601 712.7 601 675.2 601C637.7 601 600.3 601 562.8 601C525.3 601 487.7 601 450.2 601C412.7 601 375.3 601 337.8 601C300.3 601 262.7 601 225.2 601C187.7 601 150.3 601 112.8 601C75.3 601 37.7 601 18.8 601L0 601Z" fill="#5ab947" stroke-linecap="round" stroke-linejoin="miter"></path></svg>